<svg width="224" height="60" fill="none" xmlns="http://www.w3.org/2000/svg"><g clip-path="url(#a)"><path d="M19 0 0 13.646V48.65l10.534 10.534-.232-36.764L19 15.308l8.698 7.112-.232 36.764L38 48.65V13.646L19 0Z" fill="#252420"/><path d="M25.994 29.592 19 33.791l-6.994-4.199v12.259L19 46.055l6.994-4.204V29.592Z" fill="#FF7401"/></g><path d="M59.828 19.858 53.61 40.592h-2.937L58 17.842h1.844l-.016 2.016Zm5.031 20.734-6.218-20.734-.032-2.016h1.86l7.328 22.75h-2.938Zm0-8.422v2.469H53.891V32.17h10.968Zm8.47-15.578v24h-2.766v-24h2.765Zm8.577 7.094-6.015 7.89-3.72 4.282-.187-3.078 2.563-3.532 4.031-5.562h3.328Zm-2.531 16.906-4.75-8.062 1.422-2.579 6.547 10.641h-3.219Zm13.89-2.89V28.53c0-.667-.103-1.204-.312-1.61a1.838 1.838 0 0 0-.906-.89c-.396-.188-.896-.282-1.5-.282-.584 0-1.089.12-1.516.36a2.58 2.58 0 0 0-.969.953 2.669 2.669 0 0 0-.328 1.312H84.97c0-.604.13-1.203.39-1.797a5.22 5.22 0 0 1 1.157-1.609c.5-.49 1.099-.875 1.796-1.156.709-.292 1.5-.438 2.376-.438 1.041 0 1.963.172 2.765.516.802.333 1.432.88 1.89 1.64.46.761.688 1.771.688 3.032v8.344c0 .562.042 1.161.125 1.796.094.636.224 1.183.39 1.641v.25h-2.859c-.135-.333-.24-.776-.312-1.328a12.214 12.214 0 0 1-.11-1.563Zm.438-7.36.031 2.031h-1.921c-.657 0-1.256.073-1.797.22-.532.145-.99.358-1.375.64-.386.27-.683.61-.891 1.015-.198.407-.297.87-.297 1.39 0 .678.094 1.22.281 1.626.188.396.47.682.844.86.375.176.85.265 1.422.265.698 0 1.313-.162 1.844-.484.531-.323.943-.714 1.234-1.172.302-.459.443-.886.422-1.282l.61 1.297c-.042.407-.178.85-.407 1.328a5.5 5.5 0 0 1-.922 1.36 5.104 5.104 0 0 1-1.406 1.062c-.531.271-1.13.407-1.797.407-.979 0-1.838-.188-2.578-.563a4.016 4.016 0 0 1-1.703-1.656c-.406-.73-.61-1.63-.61-2.703 0-.813.141-1.563.422-2.25a4.853 4.853 0 0 1 1.25-1.782c.553-.51 1.245-.906 2.079-1.187.843-.281 1.817-.422 2.921-.422h2.344Zm15.485 6.969V16.592h2.75v24h-2.516l-.234-3.281Zm-9.454-4.36v-1.578c0-1.396.136-2.593.407-3.593.27-1.01.656-1.839 1.156-2.485.5-.656 1.099-1.14 1.797-1.453.698-.312 1.468-.469 2.312-.469.875 0 1.625.177 2.25.532.636.354 1.167.87 1.594 1.546.427.667.76 1.48 1 2.438.25.948.417 2.02.5 3.219v2.11c-.094 1.187-.266 2.254-.516 3.202-.239.948-.573 1.755-1 2.422-.427.667-.958 1.177-1.593 1.531-.636.355-1.391.532-2.266.532-.833 0-1.594-.162-2.281-.485-.688-.333-1.287-.828-1.797-1.484-.5-.667-.886-1.495-1.156-2.485-.271-1-.407-2.166-.407-3.5Zm2.766-1.578v1.578c0 .938.068 1.756.203 2.454.136.687.349 1.26.641 1.718a2.75 2.75 0 0 0 1.109 1c.458.22 1.005.328 1.641.328.771 0 1.401-.187 1.89-.562.49-.375.881-.87 1.172-1.484.302-.625.542-1.297.719-2.016V29.95a8.356 8.356 0 0 0-.453-1.53 5.303 5.303 0 0 0-.75-1.329 3.213 3.213 0 0 0-1.078-.937c-.417-.23-.906-.344-1.469-.344-.635 0-1.187.114-1.656.344a2.8 2.8 0 0 0-1.125 1.03c-.282.46-.495 1.037-.641 1.735-.135.698-.203 1.516-.203 2.453Zm19.75 9.532c-1.01 0-1.922-.151-2.734-.454a5.33 5.33 0 0 1-2.078-1.375c-.573-.625-1.011-1.411-1.313-2.359-.302-.948-.453-2.068-.453-3.36v-1.906c0-1.49.172-2.75.516-3.78.354-1.032.828-1.86 1.421-2.485.594-.636 1.266-1.094 2.016-1.375a6.33 6.33 0 0 1 2.313-.438c1.062 0 1.968.172 2.718.516.75.344 1.36.854 1.828 1.531.469.677.813 1.51 1.032 2.5.229.99.343 2.13.343 3.422v1.61h-10.562v-2.36h7.797v-.39c-.042-.876-.162-1.646-.36-2.313-.187-.667-.5-1.188-.937-1.563-.438-.385-1.057-.578-1.859-.578-.511 0-.985.089-1.422.266-.427.167-.797.463-1.11.89-.302.417-.541.995-.718 1.735-.167.74-.25 1.677-.25 2.812v1.907c0 .906.083 1.687.25 2.343.177.646.432 1.183.765 1.61.344.416.761.729 1.25.937.5.198 1.068.297 1.703.297.927 0 1.693-.177 2.297-.531a5.906 5.906 0 0 0 1.578-1.39l1.453 1.734a6.265 6.265 0 0 1-1.187 1.234c-.479.386-1.073.703-1.781.953-.698.24-1.537.36-2.516.36Zm11.719-13.86v13.547h-2.75V23.686h2.593l.157 3.36Zm-.563 4.453-1.281-.047c-.01-1.156.104-2.224.344-3.203.239-.99.599-1.849 1.078-2.578a5.135 5.135 0 0 1 1.828-1.687c.74-.407 1.599-.61 2.578-.61a4.64 4.64 0 0 1 1.797.344 3.716 3.716 0 0 1 1.469 1.047c.416.48.739 1.094.969 1.844.239.75.359 1.656.359 2.718v11.266h-2.766V29.467c0-.885-.12-1.594-.359-2.125-.229-.531-.557-.917-.984-1.156-.428-.25-.938-.375-1.532-.375-.677 0-1.245.15-1.703.453a3.253 3.253 0 0 0-1.078 1.25 6.633 6.633 0 0 0-.563 1.828 14.207 14.207 0 0 0-.156 2.156Zm9.11-1.593-1.844.593a9.415 9.415 0 0 1 .344-2.672 7.389 7.389 0 0 1 1.062-2.28 5.276 5.276 0 0 1 1.781-1.579c.709-.396 1.532-.594 2.469-.594.771 0 1.453.12 2.047.36.594.24 1.094.61 1.5 1.11.417.489.729 1.119.937 1.89.209.77.313 1.687.313 2.75v11.11h-2.766V29.45c0-.948-.119-1.682-.359-2.203-.229-.53-.557-.9-.984-1.11-.427-.218-.938-.327-1.532-.327-.479 0-.906.11-1.281.328a2.84 2.84 0 0 0-.922.906c-.25.375-.442.807-.578 1.297a6.297 6.297 0 0 0-.187 1.563Z" fill="#252420"/><path d="M158.062 27.295v13.297h-2.765V23.686h2.609l.156 3.61Zm-.671 4.203-1.125-.047c-.011-1.156.119-2.224.39-3.203.282-.99.677-1.849 1.188-2.578.521-.729 1.14-1.292 1.859-1.687a4.775 4.775 0 0 1 2.391-.61 4.93 4.93 0 0 1 1.875.344 3.422 3.422 0 0 1 1.437 1.063c.396.49.698 1.125.906 1.906.219.77.329 1.713.329 2.828v11.078h-2.766v-11.11c0-.885-.099-1.593-.297-2.124-.187-.542-.479-.933-.875-1.172-.385-.25-.875-.375-1.469-.375-.541 0-1.046.15-1.515.453-.469.302-.88.719-1.235 1.25a6.838 6.838 0 0 0-.812 1.828 8.026 8.026 0 0 0-.281 2.156Zm21.687 6.203V28.53c0-.667-.104-1.204-.312-1.61a1.837 1.837 0 0 0-.907-.89c-.395-.188-.895-.282-1.5-.282-.583 0-1.088.12-1.515.36-.417.24-.74.557-.969.953a2.665 2.665 0 0 0-.328 1.312h-2.766c0-.604.13-1.203.391-1.797a5.222 5.222 0 0 1 1.156-1.609c.5-.49 1.099-.875 1.797-1.156.708-.292 1.5-.438 2.375-.438 1.042 0 1.964.172 2.766.516.802.333 1.432.88 1.89 1.64.459.761.688 1.771.688 3.032v8.344c0 .562.041 1.161.125 1.796.093.636.224 1.183.39 1.641v.25H179.5c-.135-.333-.24-.776-.312-1.328a12.203 12.203 0 0 1-.11-1.563Zm.438-7.359.031 2.031h-1.922c-.656 0-1.255.073-1.797.22-.531.145-.989.358-1.375.64-.385.27-.682.61-.891 1.015-.197.407-.296.87-.296 1.39 0 .678.093 1.22.281 1.626.187.396.469.682.844.86.375.176.849.265 1.421.265.698 0 1.313-.162 1.844-.484.532-.323.943-.714 1.235-1.172.302-.459.442-.886.421-1.282l.61 1.297c-.042.407-.177.85-.406 1.328a5.507 5.507 0 0 1-.922 1.36 5.117 5.117 0 0 1-1.406 1.062c-.532.271-1.131.407-1.797.407-.98 0-1.839-.188-2.579-.563a4.022 4.022 0 0 1-1.703-1.656c-.406-.73-.609-1.63-.609-2.703 0-.813.141-1.563.422-2.25a4.852 4.852 0 0 1 1.25-1.782c.552-.51 1.245-.906 2.078-1.187.844-.281 1.818-.422 2.922-.422h2.344Zm14.828 5.922c0-.427-.104-.802-.313-1.125-.208-.323-.552-.636-1.031-.938-.469-.302-1.104-.625-1.906-.968a32.335 32.335 0 0 1-2.11-.953 8.004 8.004 0 0 1-1.562-1.047 3.933 3.933 0 0 1-.984-1.297c-.219-.5-.329-1.089-.329-1.766s.125-1.302.375-1.875a4.696 4.696 0 0 1 1.094-1.531 4.902 4.902 0 0 1 1.688-1.016c.656-.25 1.39-.375 2.203-.375 1.156 0 2.14.224 2.953.672a4.595 4.595 0 0 1 1.859 1.844c.438.77.657 1.64.657 2.61h-2.75c0-.47-.105-.912-.313-1.329a2.54 2.54 0 0 0-.922-1.015c-.406-.271-.901-.407-1.484-.407-.615 0-1.115.11-1.5.328a2.027 2.027 0 0 0-.844.86c-.167.344-.25.724-.25 1.14 0 .313.042.584.125.813.094.219.25.427.469.625.219.187.515.385.89.594.386.198.875.427 1.469.687 1.146.448 2.11.901 2.891 1.36.781.458 1.375.994 1.781 1.609.406.614.609 1.375.609 2.281 0 .74-.135 1.412-.406 2.016a4.29 4.29 0 0 1-1.125 1.531 5.096 5.096 0 0 1-1.766.984c-.677.22-1.437.329-2.281.329-1.271 0-2.349-.25-3.234-.75-.875-.51-1.542-1.172-2-1.985a5.438 5.438 0 0 1-.672-2.64h2.766c.031.791.208 1.406.531 1.843.333.438.734.74 1.203.907.469.166.937.25 1.406.25.615 0 1.13-.089 1.547-.266.417-.188.729-.453.938-.797.218-.344.328-.745.328-1.203Zm9.156-19.672v24h-2.766v-24h2.766Zm-.672 14.906-1.125-.047c-.01-1.156.12-2.224.391-3.203.281-.99.677-1.849 1.187-2.578.521-.729 1.141-1.292 1.86-1.687a4.769 4.769 0 0 1 2.39-.61c.688 0 1.313.115 1.875.344a3.42 3.42 0 0 1 1.438 1.063c.396.49.698 1.125.906 1.906.219.77.328 1.713.328 2.828v11.078h-2.766v-11.11c0-.885-.098-1.593-.296-2.124-.188-.542-.48-.933-.875-1.172-.386-.25-.875-.375-1.469-.375-.542 0-1.047.15-1.516.453-.468.302-.88.719-1.234 1.25a6.808 6.808 0 0 0-.813 1.828 8.067 8.067 0 0 0-.281 2.156Zm16.141-5.156v14.25h-2.766V23.686h2.672l.094 2.656Zm4.203-2.75.016 2.688a3.809 3.809 0 0 0-.626-.094 5.426 5.426 0 0 0-.624-.031c-.521 0-.98.104-1.376.312a3.08 3.08 0 0 0-1 .875 4.5 4.5 0 0 0-.671 1.344 8.006 8.006 0 0 0-.344 1.687l-.719.47c0-1.022.078-1.98.234-2.876.167-.896.422-1.687.766-2.375.344-.698.781-1.24 1.313-1.625.541-.396 1.187-.594 1.937-.594.167 0 .37.026.61.078.25.042.411.089.484.141Z" fill="#FF7500"/><defs><clipPath id="a"><path fill="#fff" d="M0 0h38v59.184H0z"/></clipPath></defs></svg>